<svg width="548" height="167" viewBox="0 0 548 167" fill="none" xmlns="http://www.w3.org/2000/svg">
<g clip-path="url(#clip0_2_23)">
<g filter="url(#filter0_d_2_23)">
<path d="M159 13L229.148 141.25H88.852L159 13Z" fill="url(#paint0_diamond_2_23)"/>
<path d="M360 13L430.148 141.25H289.852L360 13Z" fill="url(#paint1_diamond_2_23)"/>
<path d="M253 139L323.148 10.75H182.852L253 139Z" fill="url(#paint2_diamond_2_23)"/>
<path d="M68.096 73.744H99.712V118.544C94.7627 120.165 89.7707 121.36 84.736 122.128C79.7013 122.896 73.984 123.28 67.584 123.28C58.112 123.28 50.1333 121.403 43.648 117.648C37.1627 113.808 32.2133 108.389 28.8 101.392C25.472 94.3093 23.808 85.9467 23.808 76.304C23.808 66.7467 25.6853 58.4693 29.44 51.472C33.1947 44.4747 38.5707 39.056 45.568 35.216C52.6507 31.2907 61.184 29.328 71.168 29.328C76.288 29.328 81.1094 29.7973 85.632 30.736C90.24 31.6747 94.5067 32.9973 98.432 34.704L94.08 44.688C90.8374 43.2373 87.168 42 83.072 40.976C79.0614 39.952 74.88 39.44 70.528 39.44C63.2747 39.44 57.0453 40.9333 51.84 43.92C46.6347 46.9067 42.6667 51.1733 39.936 56.72C37.2053 62.1813 35.84 68.7093 35.84 76.304C35.84 83.5573 36.992 90 39.296 95.632C41.6853 101.179 45.3973 105.531 50.432 108.688C55.4667 111.76 62.08 113.296 70.272 113.296C73.0027 113.296 75.392 113.211 77.44 113.04C79.5733 112.784 81.4933 112.485 83.2 112.144C84.992 111.803 86.656 111.461 88.192 111.12V83.984H68.096V73.744Z" fill="url(#paint3_linear_2_23)"/>
<path d="M135.749 52.24C144.112 52.24 150.298 54.0747 154.309 57.744C158.32 61.4133 160.325 67.2587 160.325 75.28V122H152.133L149.957 112.272H149.445C147.482 114.747 145.434 116.837 143.301 118.544C141.253 120.165 138.864 121.36 136.133 122.128C133.488 122.896 130.245 123.28 126.405 123.28C122.309 123.28 118.597 122.555 115.269 121.104C112.026 119.653 109.466 117.435 107.589 114.448C105.712 111.376 104.773 107.536 104.773 102.928C104.773 96.1013 107.461 90.8533 112.837 87.184C118.213 83.4293 126.49 81.3813 137.669 81.04L149.317 80.656V76.56C149.317 70.8427 148.08 66.8747 145.605 64.656C143.13 62.4373 139.632 61.328 135.109 61.328C131.525 61.328 128.112 61.8827 124.869 62.992C121.626 64.016 118.597 65.2107 115.781 66.576L112.325 58.128C115.312 56.5067 118.853 55.1413 122.949 54.032C127.045 52.8373 131.312 52.24 135.749 52.24ZM139.077 88.848C130.544 89.1893 124.613 90.5547 121.285 92.944C118.042 95.3333 116.421 98.704 116.421 103.056C116.421 106.896 117.573 109.712 119.877 111.504C122.266 113.296 125.296 114.192 128.965 114.192C134.768 114.192 139.589 112.613 143.429 109.456C147.269 106.213 149.189 101.264 149.189 94.608V88.464L139.077 88.848Z" fill="url(#paint4_linear_2_23)"/>
<path d="M186.379 122L160.395 53.392H172.427L187.019 93.84C187.702 95.7173 188.427 97.808 189.195 100.112C189.963 102.416 190.646 104.635 191.243 106.768C191.84 108.816 192.267 110.565 192.523 112.016H193.035C193.376 110.565 193.846 108.773 194.443 106.64C195.126 104.507 195.851 102.288 196.619 99.984C197.472 97.68 198.198 95.632 198.795 93.84L213.387 53.392H225.419L199.307 122H186.379Z" fill="url(#paint5_linear_2_23)"/>
<path d="M252.019 52.24C260.382 52.24 266.568 54.0747 270.579 57.744C274.59 61.4133 276.595 67.2587 276.595 75.28V122H268.403L266.227 112.272H265.715C263.752 114.747 261.704 116.837 259.571 118.544C257.523 120.165 255.134 121.36 252.403 122.128C249.758 122.896 246.515 123.28 242.675 123.28C238.579 123.28 234.867 122.555 231.539 121.104C228.296 119.653 225.736 117.435 223.859 114.448C221.982 111.376 221.043 107.536 221.043 102.928C221.043 96.1013 223.731 90.8533 229.107 87.184C234.483 83.4293 242.76 81.3813 253.939 81.04L265.587 80.656V76.56C265.587 70.8427 264.35 66.8747 261.875 64.656C259.4 62.4373 255.902 61.328 251.379 61.328C247.795 61.328 244.382 61.8827 241.139 62.992C237.896 64.016 234.867 65.2107 232.051 66.576L228.595 58.128C231.582 56.5067 235.123 55.1413 239.219 54.032C243.315 52.8373 247.582 52.24 252.019 52.24ZM255.347 88.848C246.814 89.1893 240.883 90.5547 237.555 92.944C234.312 95.3333 232.691 98.704 232.691 103.056C232.691 106.896 233.843 109.712 236.147 111.504C238.536 113.296 241.566 114.192 245.235 114.192C251.038 114.192 255.859 112.613 259.699 109.456C263.539 106.213 265.459 101.264 265.459 94.608V88.464L255.347 88.848Z" fill="url(#paint6_linear_2_23)"/>
<path d="M320.569 52.112C328.761 52.112 334.948 54.1173 339.129 58.128C343.31 62.0533 345.401 68.4533 345.401 77.328V122H334.265V78.096C334.265 72.5493 333.028 68.4107 330.553 65.68C328.078 62.9493 324.196 61.584 318.905 61.584C311.31 61.584 306.062 63.7173 303.161 67.984C300.26 72.2507 298.809 78.3947 298.809 86.416V122H287.545V53.392H296.633L298.297 62.736H298.937C300.473 60.3467 302.35 58.384 304.569 56.848C306.873 55.2267 309.39 54.032 312.121 53.264C314.852 52.496 317.668 52.112 320.569 52.112Z" fill="url(#paint7_linear_2_23)"/>
<path d="M382.414 52.24C390.777 52.24 396.963 54.0747 400.974 57.744C404.985 61.4133 406.99 67.2587 406.99 75.28V122H398.798L396.622 112.272H396.11C394.147 114.747 392.099 116.837 389.966 118.544C387.918 120.165 385.529 121.36 382.798 122.128C380.153 122.896 376.91 123.28 373.07 123.28C368.974 123.28 365.262 122.555 361.934 121.104C358.691 119.653 356.131 117.435 354.254 114.448C352.377 111.376 351.438 107.536 351.438 102.928C351.438 96.1013 354.126 90.8533 359.502 87.184C364.878 83.4293 373.155 81.3813 384.334 81.04L395.982 80.656V76.56C395.982 70.8427 394.745 66.8747 392.27 64.656C389.795 62.4373 386.297 61.328 381.774 61.328C378.19 61.328 374.777 61.8827 371.534 62.992C368.291 64.016 365.262 65.2107 362.446 66.576L358.99 58.128C361.977 56.5067 365.518 55.1413 369.614 54.032C373.71 52.8373 377.977 52.24 382.414 52.24ZM385.742 88.848C377.209 89.1893 371.278 90.5547 367.95 92.944C364.707 95.3333 363.086 98.704 363.086 103.056C363.086 106.896 364.238 109.712 366.542 111.504C368.931 113.296 371.961 114.192 375.63 114.192C381.433 114.192 386.254 112.613 390.094 109.456C393.934 106.213 395.854 101.264 395.854 94.608V88.464L385.742 88.848Z" fill="url(#paint8_linear_2_23)"/>
<path d="M442.26 123.28C433.727 123.28 426.9 120.336 421.78 114.448C416.66 108.475 414.1 99.6 414.1 87.824C414.1 76.048 416.66 67.1733 421.78 61.2C426.985 55.1413 433.855 52.112 442.388 52.112C445.972 52.112 449.087 52.5813 451.732 53.52C454.377 54.3733 456.681 55.568 458.644 57.104C460.607 58.64 462.271 60.3467 463.636 62.224H464.404C464.319 61.1147 464.148 59.4933 463.892 57.36C463.721 55.1413 463.636 53.392 463.636 52.112V24.72H474.9V122H465.812L464.148 112.784H463.636C462.271 114.747 460.607 116.539 458.644 118.16C456.681 119.696 454.335 120.933 451.604 121.872C448.959 122.811 445.844 123.28 442.26 123.28ZM444.052 113.936C451.305 113.936 456.383 111.973 459.284 108.048C462.271 104.037 463.764 98.0213 463.764 90V87.952C463.764 79.4187 462.356 72.8907 459.54 68.368C456.724 63.76 451.519 61.456 443.924 61.456C437.865 61.456 433.3 63.888 430.228 68.752C427.241 73.5307 425.748 79.9733 425.748 88.08C425.748 96.272 427.241 102.629 430.228 107.152C433.3 111.675 437.908 113.936 444.052 113.936Z" fill="url(#paint9_linear_2_23)"/>
<path d="M512.946 52.112C518.834 52.112 523.869 53.392 528.05 55.952C532.317 58.512 535.559 62.1387 537.778 66.832C540.082 71.44 541.234 76.8587 541.234 83.088V89.872H494.258C494.429 97.6373 496.391 103.568 500.146 107.664C503.986 111.675 509.319 113.68 516.146 113.68C520.498 113.68 524.338 113.296 527.666 112.528C531.079 111.675 534.578 110.48 538.162 108.944V118.8C534.663 120.336 531.207 121.445 527.794 122.128C524.381 122.896 520.327 123.28 515.634 123.28C509.149 123.28 503.389 121.957 498.354 119.312C493.405 116.667 489.522 112.741 486.706 107.536C483.975 102.245 482.61 95.8027 482.61 88.208C482.61 80.6987 483.847 74.256 486.322 68.88C488.882 63.504 492.423 59.3653 496.946 56.464C501.554 53.5627 506.887 52.112 512.946 52.112ZM512.818 61.328C507.442 61.328 503.175 63.0773 500.018 66.576C496.946 69.9893 495.111 74.768 494.514 80.912H529.458C529.458 76.9867 528.861 73.5733 527.666 70.672C526.471 67.7707 524.637 65.5093 522.162 63.888C519.773 62.1813 516.658 61.328 512.818 61.328Z" fill="url(#paint10_linear_2_23)"/>
</g>
<g filter="url(#filter1_d_2_23)">
<path d="M68.096 73.744H99.712V118.544C94.7627 120.165 89.7707 121.36 84.736 122.128C79.7013 122.896 73.984 123.28 67.584 123.28C58.112 123.28 50.1333 121.403 43.648 117.648C37.1627 113.808 32.2133 108.389 28.8 101.392C25.472 94.3093 23.808 85.9467 23.808 76.304C23.808 66.7467 25.6853 58.4693 29.44 51.472C33.1947 44.4747 38.5707 39.056 45.568 35.216C52.6507 31.2907 61.184 29.328 71.168 29.328C76.288 29.328 81.1093 29.7973 85.632 30.736C90.24 31.6747 94.5067 32.9973 98.432 34.704L94.08 44.688C90.8373 43.2373 87.168 42 83.072 40.976C79.0613 39.952 74.88 39.44 70.528 39.44C63.2747 39.44 57.0453 40.9333 51.84 43.92C46.6347 46.9067 42.6667 51.1733 39.936 56.72C37.2053 62.1813 35.84 68.7093 35.84 76.304C35.84 83.5573 36.992 90 39.296 95.632C41.6853 101.179 45.3973 105.531 50.432 108.688C55.4667 111.76 62.08 113.296 70.272 113.296C73.0027 113.296 75.392 113.211 77.44 113.04C79.5733 112.784 81.4933 112.485 83.2 112.144C84.992 111.803 86.656 111.461 88.192 111.12V83.984H68.096V73.744ZM135.749 52.24C144.112 52.24 150.298 54.0747 154.309 57.744C158.32 61.4133 160.325 67.2587 160.325 75.28V122H152.133L149.957 112.272H149.445C147.482 114.747 145.434 116.837 143.301 118.544C141.253 120.165 138.864 121.36 136.133 122.128C133.488 122.896 130.245 123.28 126.405 123.28C122.309 123.28 118.597 122.555 115.269 121.104C112.026 119.653 109.466 117.435 107.589 114.448C105.712 111.376 104.773 107.536 104.773 102.928C104.773 96.1013 107.461 90.8533 112.837 87.184C118.213 83.4293 126.49 81.3813 137.669 81.04L149.317 80.656V76.56C149.317 70.8427 148.08 66.8747 145.605 64.656C143.13 62.4373 139.632 61.328 135.109 61.328C131.525 61.328 128.112 61.8827 124.869 62.992C121.626 64.016 118.597 65.2107 115.781 66.576L112.325 58.128C115.312 56.5067 118.853 55.1413 122.949 54.032C127.045 52.8373 131.312 52.24 135.749 52.24ZM139.077 88.848C130.544 89.1893 124.613 90.5547 121.285 92.944C118.042 95.3333 116.421 98.704 116.421 103.056C116.421 106.896 117.573 109.712 119.877 111.504C122.266 113.296 125.296 114.192 128.965 114.192C134.768 114.192 139.589 112.613 143.429 109.456C147.269 106.213 149.189 101.264 149.189 94.608V88.464L139.077 88.848ZM186.379 122L160.395 53.392H172.427L187.019 93.84C187.702 95.7173 188.427 97.808 189.195 100.112C189.963 102.416 190.646 104.635 191.243 106.768C191.84 108.816 192.267 110.565 192.523 112.016H193.035C193.376 110.565 193.846 108.773 194.443 106.64C195.126 104.507 195.851 102.288 196.619 99.984C197.472 97.68 198.198 95.632 198.795 93.84L213.387 53.392H225.419L199.307 122H186.379ZM252.019 52.24C260.382 52.24 266.568 54.0747 270.579 57.744C274.59 61.4133 276.595 67.2587 276.595 75.28V122H268.403L266.227 112.272H265.715C263.752 114.747 261.704 116.837 259.571 118.544C257.523 120.165 255.134 121.36 252.403 122.128C249.758 122.896 246.515 123.28 242.675 123.28C238.579 123.28 234.867 122.555 231.539 121.104C228.296 119.653 225.736 117.435 223.859 114.448C221.982 111.376 221.043 107.536 221.043 102.928C221.043 96.1013 223.731 90.8533 229.107 87.184C234.483 83.4293 242.76 81.3813 253.939 81.04L265.587 80.656V76.56C265.587 70.8427 264.35 66.8747 261.875 64.656C259.4 62.4373 255.902 61.328 251.379 61.328C247.795 61.328 244.382 61.8827 241.139 62.992C237.896 64.016 234.867 65.2107 232.051 66.576L228.595 58.128C231.582 56.5067 235.123 55.1413 239.219 54.032C243.315 52.8373 247.582 52.24 252.019 52.24ZM255.347 88.848C246.814 89.1893 240.883 90.5547 237.555 92.944C234.312 95.3333 232.691 98.704 232.691 103.056C232.691 106.896 233.843 109.712 236.147 111.504C238.536 113.296 241.566 114.192 245.235 114.192C251.038 114.192 255.859 112.613 259.699 109.456C263.539 106.213 265.459 101.264 265.459 94.608V88.464L255.347 88.848ZM320.569 52.112C328.761 52.112 334.948 54.1173 339.129 58.128C343.31 62.0533 345.401 68.4533 345.401 77.328V122H334.265V78.096C334.265 72.5493 333.028 68.4107 330.553 65.68C328.078 62.9493 324.196 61.584 318.905 61.584C311.31 61.584 306.062 63.7173 303.161 67.984C300.26 72.2507 298.809 78.3947 298.809 86.416V122H287.545V53.392H296.633L298.297 62.736H298.937C300.473 60.3467 302.35 58.384 304.569 56.848C306.873 55.2267 309.39 54.032 312.121 53.264C314.852 52.496 317.668 52.112 320.569 52.112ZM382.414 52.24C390.777 52.24 396.963 54.0747 400.974 57.744C404.985 61.4133 406.99 67.2587 406.99 75.28V122H398.798L396.622 112.272H396.11C394.147 114.747 392.099 116.837 389.966 118.544C387.918 120.165 385.529 121.36 382.798 122.128C380.153 122.896 376.91 123.28 373.07 123.28C368.974 123.28 365.262 122.555 361.934 121.104C358.691 119.653 356.131 117.435 354.254 114.448C352.377 111.376 351.438 107.536 351.438 102.928C351.438 96.1013 354.126 90.8533 359.502 87.184C364.878 83.4293 373.155 81.3813 384.334 81.04L395.982 80.656V76.56C395.982 70.8427 394.745 66.8747 392.27 64.656C389.795 62.4373 386.297 61.328 381.774 61.328C378.19 61.328 374.777 61.8827 371.534 62.992C368.291 64.016 365.262 65.2107 362.446 66.576L358.99 58.128C361.977 56.5067 365.518 55.1413 369.614 54.032C373.71 52.8373 377.977 52.24 382.414 52.24ZM385.742 88.848C377.209 89.1893 371.278 90.5547 367.95 92.944C364.707 95.3333 363.086 98.704 363.086 103.056C363.086 106.896 364.238 109.712 366.542 111.504C368.931 113.296 371.961 114.192 375.63 114.192C381.433 114.192 386.254 112.613 390.094 109.456C393.934 106.213 395.854 101.264 395.854 94.608V88.464L385.742 88.848ZM442.26 123.28C433.727 123.28 426.9 120.336 421.78 114.448C416.66 108.475 414.1 99.6 414.1 87.824C414.1 76.048 416.66 67.1733 421.78 61.2C426.985 55.1413 433.855 52.112 442.388 52.112C445.972 52.112 449.087 52.5813 451.732 53.52C454.377 54.3733 456.681 55.568 458.644 57.104C460.607 58.64 462.271 60.3467 463.636 62.224H464.404C464.319 61.1147 464.148 59.4933 463.892 57.36C463.721 55.1413 463.636 53.392 463.636 52.112V24.72H474.9V122H465.812L464.148 112.784H463.636C462.271 114.747 460.607 116.539 458.644 118.16C456.681 119.696 454.335 120.933 451.604 121.872C448.959 122.811 445.844 123.28 442.26 123.28ZM444.052 113.936C451.305 113.936 456.383 111.973 459.284 108.048C462.271 104.037 463.764 98.0213 463.764 90V87.952C463.764 79.4187 462.356 72.8907 459.54 68.368C456.724 63.76 451.519 61.456 443.924 61.456C437.865 61.456 433.3 63.888 430.228 68.752C427.241 73.5307 425.748 79.9733 425.748 88.08C425.748 96.272 427.241 102.629 430.228 107.152C433.3 111.675 437.908 113.936 444.052 113.936ZM512.946 52.112C518.834 52.112 523.869 53.392 528.05 55.952C532.317 58.512 535.559 62.1387 537.778 66.832C540.082 71.44 541.234 76.8587 541.234 83.088V89.872H494.258C494.429 97.6373 496.391 103.568 500.146 107.664C503.986 111.675 509.319 113.68 516.146 113.68C520.498 113.68 524.338 113.296 527.666 112.528C531.079 111.675 534.578 110.48 538.162 108.944V118.8C534.663 120.336 531.207 121.445 527.794 122.128C524.381 122.896 520.327 123.28 515.634 123.28C509.149 123.28 503.389 121.957 498.354 119.312C493.405 116.667 489.522 112.741 486.706 107.536C483.975 102.245 482.61 95.8027 482.61 88.208C482.61 80.6987 483.847 74.256 486.322 68.88C488.882 63.504 492.423 59.3653 496.946 56.464C501.554 53.5627 506.887 52.112 512.946 52.112ZM512.818 61.328C507.442 61.328 503.175 63.0773 500.018 66.576C496.946 69.9893 495.111 74.768 494.514 80.912H529.458C529.458 76.9867 528.861 73.5733 527.666 70.672C526.471 67.7707 524.637 65.5093 522.162 63.888C519.773 62.1813 516.658 61.328 512.818 61.328Z" fill="url(#paint11_linear_2_23)" shape-rendering="crispEdges"/>
<path d="M68.096 73.744V72.744H67.096V73.744H68.096ZM99.712 73.744H100.712V72.744H99.712V73.744ZM99.712 118.544L100.023 119.494L100.712 119.269V118.544H99.712ZM84.736 122.128L84.5852 121.139L84.5852 121.139L84.736 122.128ZM43.648 117.648L43.1385 118.509L43.147 118.513L43.648 117.648ZM28.8 101.392L27.8949 101.817L27.898 101.824L27.9012 101.83L28.8 101.392ZM29.44 51.472L30.3212 51.9448L30.3212 51.9448L29.44 51.472ZM45.568 35.216L46.0491 36.0927L46.0527 36.0906L45.568 35.216ZM85.632 30.736L85.4288 31.7151L85.4324 31.7159L85.632 30.736ZM98.432 34.704L99.3487 35.1036L99.7487 34.186L98.8307 33.7869L98.432 34.704ZM94.08 44.688L93.6716 45.6008L94.5933 46.0131L94.9967 45.0876L94.08 44.688ZM83.072 40.976L82.8246 41.9449L82.8295 41.9461L83.072 40.976ZM51.84 43.92L52.3377 44.7874L52.3377 44.7874L51.84 43.92ZM39.936 56.72L40.8304 57.1672L40.8332 57.1617L39.936 56.72ZM39.296 95.632L38.3705 96.0106L38.3739 96.0192L38.3776 96.0276L39.296 95.632ZM50.432 108.688L49.9007 109.535L49.9111 109.542L50.432 108.688ZM77.44 113.04L77.523 114.037L77.5411 114.035L77.5591 114.033L77.44 113.04ZM83.2 112.144L83.0129 111.162L83.0039 111.163L83.2 112.144ZM88.192 111.12L88.4089 112.096L89.192 111.922V111.12H88.192ZM88.192 83.984H89.192V82.984H88.192V83.984ZM68.096 83.984H67.096V84.984H68.096V83.984ZM68.096 74.744H99.712V72.744H68.096V74.744ZM98.712 73.744V118.544H100.712V73.744H98.712ZM99.4007 117.594C94.5025 119.198 89.5642 120.38 84.5852 121.139L84.8868 123.117C89.9771 122.34 95.0228 121.132 100.023 119.494L99.4007 117.594ZM84.5852 121.139C79.6112 121.898 73.9457 122.28 67.584 122.28V124.28C74.0223 124.28 79.7915 123.894 84.8868 123.117L84.5852 121.139ZM67.584 122.28C58.2422 122.28 50.4469 120.429 44.149 116.783L43.147 118.513C49.8198 122.377 57.9818 124.28 67.584 124.28V122.28ZM44.1575 116.788C37.8462 113.051 33.0294 107.781 29.6988 100.954L27.9012 101.83C31.3973 108.997 36.4792 114.565 43.1385 118.508L44.1575 116.788ZM29.7051 100.967C26.4524 94.0443 24.808 85.833 24.808 76.304H22.808C22.808 86.0603 24.4916 94.5743 27.8949 101.817L29.7051 100.967ZM24.808 76.304C24.808 66.8783 26.6589 58.7699 30.3212 51.9448L28.5588 50.9992C24.7118 58.1687 22.808 66.6151 22.808 76.304H24.808ZM30.3212 51.9448C33.9839 45.1189 39.2205 39.8401 46.0491 36.0927L45.0869 34.3393C37.9209 38.2719 32.4055 43.8304 28.5588 50.9992L30.3212 51.9448ZM46.0527 36.0906C52.9563 32.2646 61.3145 30.328 71.168 30.328V28.328C61.0535 28.328 52.345 30.3167 45.0833 34.3413L46.0527 36.0906ZM71.168 30.328C76.227 30.328 80.9797 30.7917 85.4288 31.7151L85.8352 29.7569C81.239 28.8029 76.349 28.328 71.168 28.328V30.328ZM85.4324 31.7159C89.9787 32.642 94.1779 33.9448 98.0333 35.6211L98.8307 33.7869C94.8355 32.0499 90.5014 30.7074 85.8316 29.7561L85.4324 31.7159ZM97.5153 34.3044L93.1633 44.2884L94.9967 45.0876L99.3487 35.1036L97.5153 34.3044ZM94.4884 43.7752C91.1833 42.2966 87.4571 41.0415 83.3145 40.0059L82.8295 41.9461C86.8789 42.9585 90.4913 44.178 93.6716 45.6008L94.4884 43.7752ZM83.3194 40.0071C79.2238 38.9614 74.9592 38.44 70.528 38.44V40.44C74.8009 40.44 78.8988 40.9426 82.8246 41.9449L83.3194 40.0071ZM70.528 38.44C63.1364 38.44 56.7278 39.9626 51.3423 43.0526L52.3377 44.7874C57.3628 41.9041 63.4129 40.44 70.528 40.44V38.44ZM51.3423 43.0526C45.959 46.1414 41.8545 50.5589 39.0388 56.2783L40.8332 57.1617C43.4788 51.7878 47.3103 47.6719 52.3377 44.7874L51.3423 43.0526ZM39.0416 56.2728C36.2266 61.9027 34.84 68.5911 34.84 76.304H36.84C36.84 68.8275 38.184 62.46 40.8304 57.1672L39.0416 56.2728ZM34.84 76.304C34.84 83.6628 36.0088 90.2377 38.3705 96.0106L40.2215 95.2534C37.9752 89.7623 36.84 83.4519 36.84 76.304H34.84ZM38.3776 96.0276C40.8458 101.757 44.6912 106.268 49.9007 109.535L50.9633 107.841C46.1034 104.793 42.5249 100.6 40.2144 95.2364L38.3776 96.0276ZM49.9111 109.542C55.1523 112.74 61.9647 114.296 70.272 114.296V112.296C62.1953 112.296 55.781 110.78 50.9529 107.834L49.9111 109.542ZM70.272 114.296C73.022 114.296 75.4402 114.21 77.523 114.037L77.357 112.043C75.3438 112.211 72.9833 112.296 70.272 112.296V114.296ZM77.5591 114.033C79.7126 113.774 81.6589 113.472 83.3961 113.125L83.0039 111.163C81.3278 111.499 79.4341 111.794 77.3209 112.047L77.5591 114.033ZM83.3871 113.126C85.1876 112.783 86.8616 112.44 88.4089 112.096L87.9751 110.144C86.4504 110.483 84.7964 110.822 83.0129 111.162L83.3871 113.126ZM89.192 111.12V83.984H87.192V111.12H89.192ZM88.192 82.984H68.096V84.984H88.192V82.984ZM69.096 83.984V73.744H67.096V83.984H69.096ZM154.309 57.744L154.984 57.0062L154.984 57.0062L154.309 57.744ZM160.325 122V123H161.325V122H160.325ZM152.133 122L151.157 122.218L151.332 123H152.133V122ZM149.957 112.272L150.933 112.054L150.758 111.272H149.957V112.272ZM149.445 112.272V111.272H148.962L148.662 111.651L149.445 112.272ZM143.301 118.544L143.922 119.328L143.926 119.325L143.301 118.544ZM136.133 122.128L135.862 121.165L135.854 121.168L136.133 122.128ZM115.269 121.104L114.861 122.017L114.869 122.021L115.269 121.104ZM107.589 114.448L106.736 114.969L106.742 114.98L107.589 114.448ZM112.837 87.184L113.401 88.01L113.41 88.0038L112.837 87.184ZM137.669 81.04L137.7 82.0395L137.702 82.0395L137.669 81.04ZM149.317 80.656L149.35 81.6555L150.317 81.6236V80.656H149.317ZM145.605 64.656L144.937 65.4006L144.937 65.4006L145.605 64.656ZM124.869 62.992L125.17 63.9456L125.181 63.942L125.193 63.9382L124.869 62.992ZM115.781 66.576L114.855 66.9546L115.259 67.9405L116.217 67.4758L115.781 66.576ZM112.325 58.128L111.848 57.2491L111.06 57.6769L111.399 58.5066L112.325 58.128ZM122.949 54.032L123.21 54.9972L123.22 54.9947L123.229 54.992L122.949 54.032ZM139.077 88.848L139.039 87.8487L139.037 87.8488L139.077 88.848ZM121.285 92.944L120.702 92.1316L120.692 92.1389L121.285 92.944ZM119.877 111.504L119.263 112.293L119.27 112.299L119.277 112.304L119.877 111.504ZM143.429 109.456L144.064 110.228L144.074 110.22L143.429 109.456ZM149.189 88.464H150.189V87.4253L149.151 87.4647L149.189 88.464ZM135.749 53.24C143.992 53.24 149.885 55.052 153.634 58.4818L154.984 57.0062C150.712 53.0973 144.232 51.24 135.749 51.24V53.24ZM153.634 58.4818C157.356 61.8867 159.325 67.4047 159.325 75.28H161.325C161.325 67.1127 159.284 60.9399 154.984 57.0062L153.634 58.4818ZM159.325 75.28V122H161.325V75.28H159.325ZM160.325 121H152.133V123H160.325V121ZM153.109 121.782L150.933 112.054L148.981 112.49L151.157 122.218L153.109 121.782ZM149.957 111.272H149.445V113.272H149.957V111.272ZM148.662 111.651C146.739 114.075 144.743 116.11 142.676 117.763L143.926 119.325C146.126 117.565 148.226 115.418 150.229 112.893L148.662 111.651ZM142.68 117.76C140.745 119.292 138.477 120.43 135.862 121.165L136.404 123.091C139.251 122.29 141.761 121.038 143.922 119.328L142.68 117.76ZM135.854 121.168C133.327 121.901 130.185 122.28 126.405 122.28V124.28C130.305 124.28 133.648 123.891 136.412 123.088L135.854 121.168ZM126.405 122.28C122.429 122.28 118.855 121.576 115.669 120.187L114.869 122.021C118.339 123.533 122.189 124.28 126.405 124.28V122.28ZM115.677 120.191C112.614 118.821 110.207 116.734 108.436 113.916L106.742 114.98C108.726 118.136 111.439 120.486 114.861 122.017L115.677 120.191ZM108.442 113.927C106.684 111.05 105.773 107.403 105.773 102.928H103.773C103.773 107.669 104.739 111.702 106.736 114.969L108.442 113.927ZM105.773 102.928C105.773 96.4126 108.313 91.4824 113.401 88.0099L112.273 86.358C106.609 90.2243 103.773 95.79 103.773 102.928H105.773ZM113.41 88.0038C118.549 84.4142 126.593 82.3786 137.7 82.0395L137.638 80.0405C126.387 80.384 117.877 82.4445 112.264 86.3642L113.41 88.0038ZM137.702 82.0395L149.35 81.6555L149.284 79.6565L137.636 80.0405L137.702 82.0395ZM150.317 80.656V76.56H148.317V80.656H150.317ZM150.317 76.56C150.317 70.7526 149.07 66.4191 146.273 63.9114L144.937 65.4006C147.09 67.3302 148.317 70.9328 148.317 76.56H150.317ZM146.273 63.9114C143.557 61.4769 139.788 60.328 135.109 60.328V62.328C139.475 62.328 142.704 63.3978 144.937 65.4006L146.273 63.9114ZM135.109 60.328C131.42 60.328 127.897 60.8992 124.545 62.0458L125.193 63.9382C128.326 62.8661 131.63 62.328 135.109 62.328V60.328ZM124.568 62.0384C121.283 63.0758 118.208 64.2879 115.345 65.6762L116.217 67.4758C118.986 66.1334 121.97 64.9562 125.17 63.9456L124.568 62.0384ZM116.707 66.1974L113.251 57.7494L111.399 58.5066L114.855 66.9546L116.707 66.1974ZM112.802 59.0069C115.706 57.4304 119.172 56.091 123.21 54.9972L122.688 53.0668C118.534 54.1916 114.917 55.5829 111.848 57.2491L112.802 59.0069ZM123.229 54.992C127.23 53.8249 131.403 53.24 135.749 53.24V51.24C131.221 51.24 126.86 51.8498 122.669 53.072L123.229 54.992ZM139.037 87.8488C130.48 88.1911 124.286 89.5581 120.702 92.1317L121.868 93.7563C124.94 91.5513 130.608 90.1876 139.117 89.8472L139.037 87.8488ZM120.692 92.1389C117.17 94.7337 115.421 98.416 115.421 103.056H117.421C117.421 98.992 118.914 95.9329 121.878 93.7491L120.692 92.1389ZM115.421 103.056C115.421 107.099 116.643 110.255 119.263 112.293L120.491 110.715C118.503 109.169 117.421 106.693 117.421 103.056H115.421ZM119.277 112.304C121.876 114.253 125.13 115.192 128.965 115.192V113.192C125.462 113.192 122.657 112.339 120.477 110.704L119.277 112.304ZM128.965 115.192C134.959 115.192 140.016 113.557 144.064 110.228L142.794 108.684C139.162 111.67 134.577 113.192 128.965 113.192V115.192ZM144.074 110.22C148.207 106.73 150.189 101.457 150.189 94.608H148.189C148.189 101.071 146.331 105.696 142.784 108.692L144.074 110.22ZM150.189 94.608V88.464H148.189V94.608H150.189ZM149.151 87.4647L139.039 87.8487L139.115 89.8473L149.227 89.4633L149.151 87.4647ZM186.379 122L185.444 122.354L185.688 123H186.379V122ZM160.395 53.392V52.392H158.947L159.46 53.7462L160.395 53.392ZM172.427 53.392L173.368 53.0526L173.129 52.392H172.427V53.392ZM187.019 93.84L186.078 94.1794L186.079 94.1817L187.019 93.84ZM189.195 100.112L188.246 100.428L188.246 100.428L189.195 100.112ZM191.243 106.768L190.28 107.038L190.283 107.048L191.243 106.768ZM192.523 112.016L191.538 112.19L191.684 113.016H192.523V112.016ZM193.035 112.016V113.016H193.827L194.008 112.245L193.035 112.016ZM194.443 106.64L193.491 106.335L193.485 106.353L193.48 106.37L194.443 106.64ZM196.619 99.984L195.681 99.6367L195.676 99.6521L195.67 99.6678L196.619 99.984ZM198.795 93.84L197.854 93.5006L197.85 93.5122L197.846 93.5238L198.795 93.84ZM213.387 53.392V52.392H212.685L212.446 53.0526L213.387 53.392ZM225.419 53.392L226.354 53.7477L226.87 52.392H225.419V53.392ZM199.307 122V123H199.996L200.242 122.356L199.307 122ZM187.314 121.646L161.33 53.0378L159.46 53.7462L185.444 122.354L187.314 121.646ZM160.395 54.392H172.427V52.392H160.395V54.392ZM171.486 53.7314L186.078 94.1794L187.96 93.5006L173.368 53.0526L171.486 53.7314ZM186.079 94.1817C186.758 96.049 187.481 98.131 188.246 100.428L190.144 99.7958C189.373 97.485 188.645 95.3856 187.959 93.4983L186.079 94.1817ZM188.246 100.428C189.01 102.718 189.687 104.921 190.28 107.038L192.206 106.498C191.604 104.348 190.916 102.114 190.144 99.7958L188.246 100.428ZM190.283 107.048C190.874 109.075 191.291 110.787 191.538 112.19L193.508 111.842C193.243 110.344 192.806 108.557 192.203 106.488L190.283 107.048ZM192.523 113.016H193.035V111.016H192.523V113.016ZM194.008 112.245C194.345 110.813 194.811 109.035 195.406 106.91L193.48 106.37C192.881 108.511 192.407 110.318 192.062 111.787L194.008 112.245ZM195.395 106.945C196.077 104.816 196.801 102.601 197.568 100.3L195.67 99.6678C194.901 101.975 194.175 104.198 193.491 106.335L195.395 106.945ZM197.557 100.331C198.413 98.0199 199.142 95.9612 199.744 94.1562L197.846 93.5238C197.253 95.3028 196.532 97.3401 195.681 99.6367L197.557 100.331ZM199.736 94.1794L214.328 53.7314L212.446 53.0526L197.854 93.5006L199.736 94.1794ZM213.387 54.392H225.419V52.392H213.387V54.392ZM224.484 53.0363L198.372 121.644L200.242 122.356L226.354 53.7477L224.484 53.0363ZM199.307 121H186.379V123H199.307V121ZM270.579 57.744L271.254 57.0062L271.254 57.0062L270.579 57.744ZM276.595 122V123H277.595V122H276.595ZM268.403 122L267.427 122.218L267.602 123H268.403V122ZM266.227 112.272L267.203 112.054L267.028 111.272H266.227V112.272ZM265.715 112.272V111.272H265.232L264.932 111.651L265.715 112.272ZM259.571 118.544L260.192 119.328L260.196 119.325L259.571 118.544ZM252.403 122.128L252.132 121.165L252.124 121.168L252.403 122.128ZM231.539 121.104L231.131 122.017L231.139 122.021L231.539 121.104ZM223.859 114.448L223.006 114.969L223.012 114.98L223.859 114.448ZM229.107 87.184L229.671 88.01L229.68 88.0038L229.107 87.184ZM253.939 81.04L253.97 82.0395L253.972 82.0395L253.939 81.04ZM265.587 80.656L265.62 81.6555L266.587 81.6236V80.656H265.587ZM261.875 64.656L261.207 65.4006L261.207 65.4006L261.875 64.656ZM241.139 62.992L241.44 63.9456L241.451 63.942L241.463 63.9382L241.139 62.992ZM232.051 66.576L231.125 66.9546L231.529 67.9405L232.487 67.4758L232.051 66.576ZM228.595 58.128L228.118 57.2491L227.33 57.6769L227.669 58.5066L228.595 58.128ZM239.219 54.032L239.48 54.9972L239.49 54.9947L239.499 54.992L239.219 54.032ZM255.347 88.848L255.309 87.8487L255.307 87.8488L255.347 88.848ZM237.555 92.944L236.972 92.1316L236.962 92.1389L237.555 92.944ZM236.147 111.504L235.533 112.293L235.54 112.299L235.547 112.304L236.147 111.504ZM259.699 109.456L260.334 110.228L260.344 110.22L259.699 109.456ZM265.459 88.464H266.459V87.4253L265.421 87.4647L265.459 88.464ZM252.019 53.24C260.262 53.24 266.155 55.052 269.904 58.4818L271.254 57.0062C266.982 53.0973 260.502 51.24 252.019 51.24V53.24ZM269.904 58.4818C273.626 61.8867 275.595 67.4047 275.595 75.28H277.595C277.595 67.1127 275.554 60.9399 271.254 57.0062L269.904 58.4818ZM275.595 75.28V122H277.595V75.28H275.595ZM276.595 121H268.403V123H276.595V121ZM269.379 121.782L267.203 112.054L265.251 112.49L267.427 122.218L269.379 121.782ZM266.227 111.272H265.715V113.272H266.227V111.272ZM264.932 111.651C263.009 114.075 261.013 116.11 258.946 117.763L260.196 119.325C262.396 117.565 264.496 115.418 266.498 112.893L264.932 111.651ZM258.95 117.76C257.015 119.292 254.747 120.43 252.132 121.165L252.674 123.091C255.521 122.29 258.031 121.038 260.192 119.328L258.95 117.76ZM252.124 121.168C249.597 121.901 246.455 122.28 242.675 122.28V124.28C246.575 124.28 249.918 123.891 252.682 123.088L252.124 121.168ZM242.675 122.28C238.699 122.28 235.125 121.576 231.939 120.187L231.139 122.021C234.609 123.533 238.459 124.28 242.675 124.28V122.28ZM231.947 120.191C228.884 118.821 226.477 116.734 224.706 113.916L223.012 114.98C224.996 118.136 227.709 120.486 231.131 122.017L231.947 120.191ZM224.712 113.927C222.954 111.05 222.043 107.403 222.043 102.928H220.043C220.043 107.669 221.009 111.702 223.006 114.969L224.712 113.927ZM222.043 102.928C222.043 96.4126 224.583 91.4824 229.671 88.0099L228.543 86.358C222.879 90.2243 220.043 95.79 220.043 102.928H222.043ZM229.68 88.0038C234.819 84.4142 242.863 82.3786 253.97 82.0395L253.908 80.0405C242.657 80.384 234.147 82.4445 228.534 86.3642L229.68 88.0038ZM253.972 82.0395L265.62 81.6555L265.554 79.6565L253.906 80.0405L253.972 82.0395ZM266.587 80.656V76.56H264.587V80.656H266.587ZM266.587 76.56C266.587 70.7526 265.34 66.4191 262.543 63.9114L261.207 65.4006C263.36 67.3302 264.587 70.9328 264.587 76.56H266.587ZM262.543 63.9114C259.827 61.4769 256.058 60.328 251.379 60.328V62.328C255.745 62.328 258.974 63.3978 261.207 65.4006L262.543 63.9114ZM251.379 60.328C247.69 60.328 244.167 60.8992 240.815 62.0458L241.463 63.9382C244.596 62.8661 247.9 62.328 251.379 62.328V60.328ZM240.838 62.0384C237.553 63.0758 234.478 64.2879 231.615 65.6762L232.487 67.4758C235.256 66.1334 238.24 64.9562 241.44 63.9456L240.838 62.0384ZM232.977 66.1974L229.521 57.7494L227.669 58.5066L231.125 66.9546L232.977 66.1974ZM229.072 59.0069C231.976 57.4304 235.442 56.091 239.48 54.9972L238.958 53.0668C234.804 54.1916 231.187 55.5829 228.118 57.2491L229.072 59.0069ZM239.499 54.992C243.5 53.8249 247.673 53.24 252.019 53.24V51.24C247.491 51.24 243.13 51.8498 238.939 53.072L239.499 54.992ZM255.307 87.8488C246.75 88.1911 240.556 89.5581 236.972 92.1317L238.138 93.7563C241.21 91.5513 246.878 90.1876 255.387 89.8472L255.307 87.8488ZM236.962 92.1389C233.44 94.7337 231.691 98.416 231.691 103.056H233.691C233.691 98.992 235.184 95.9329 238.148 93.7491L236.962 92.1389ZM231.691 103.056C231.691 107.099 232.913 110.255 235.533 112.293L236.761 110.715C234.773 109.169 233.691 106.693 233.691 103.056H231.691ZM235.547 112.304C238.146 114.253 241.4 115.192 245.235 115.192V113.192C241.732 113.192 238.927 112.339 236.747 110.704L235.547 112.304ZM245.235 115.192C251.229 115.192 256.286 113.557 260.334 110.228L259.064 108.684C255.432 111.67 250.847 113.192 245.235 113.192V115.192ZM260.344 110.22C264.477 106.73 266.459 101.457 266.459 94.608H264.459C264.459 101.071 262.601 105.696 259.054 108.692L260.344 110.22ZM266.459 94.608V88.464H264.459V94.608H266.459ZM265.421 87.4647L255.309 87.8487L255.385 89.8473L265.497 89.4633L265.421 87.4647ZM339.129 58.128L338.437 58.8497L338.445 58.8571L339.129 58.128ZM345.401 122V123H346.401V122H345.401ZM334.265 122H333.265V123H334.265V122ZM330.553 65.68L331.294 65.0085L331.294 65.0085L330.553 65.68ZM303.161 67.984L303.988 68.5463L303.988 68.5463L303.161 67.984ZM298.809 122V123H299.809V122H298.809ZM287.545 122H286.545V123H287.545V122ZM287.545 53.392V52.392H286.545V53.392H287.545ZM296.633 53.392L297.618 53.2167L297.471 52.392H296.633V53.392ZM298.297 62.736L297.312 62.9113L297.459 63.736H298.297V62.736ZM298.937 62.736V63.736H299.483L299.778 63.2768L298.937 62.736ZM304.569 56.848L305.138 57.6702L305.145 57.6658L304.569 56.848ZM320.569 53.112C328.61 53.112 334.507 55.0802 338.437 58.8497L339.821 57.4063C335.388 53.1545 328.912 51.112 320.569 51.112V53.112ZM338.445 58.8571C342.337 62.5112 344.401 68.5805 344.401 77.328H346.401C346.401 68.3261 344.284 61.5955 339.813 57.3989L338.445 58.8571ZM344.401 77.328V122H346.401V77.328H344.401ZM345.401 121H334.265V123H345.401V121ZM335.265 122V78.096H333.265V122H335.265ZM335.265 78.096C335.265 72.4231 334.002 67.9969 331.294 65.0085L329.812 66.3515C332.053 68.8244 333.265 72.6756 333.265 78.096H335.265ZM331.294 65.0085C328.559 61.9908 324.352 60.584 318.905 60.584V62.584C324.039 62.584 327.597 63.9078 329.812 66.3515L331.294 65.0085ZM318.905 60.584C311.145 60.584 305.499 62.7677 302.334 67.4217L303.988 68.5463C306.626 64.6669 311.475 62.584 318.905 62.584V60.584ZM302.334 67.4217C299.273 71.9228 297.809 78.2972 297.809 86.416H299.809C299.809 78.4921 301.246 72.5786 303.988 68.5463L302.334 67.4217ZM297.809 86.416V122H299.809V86.416H297.809ZM298.809 121H287.545V123H298.809V121ZM288.545 122V53.392H286.545V122H288.545ZM287.545 54.392H296.633V52.392H287.545V54.392ZM295.648 53.5673L297.312 62.9113L299.282 62.5607L297.618 53.2167L295.648 53.5673ZM298.297 63.736H298.937V61.736H298.297V63.736ZM299.778 63.2768C301.247 60.9923 303.034 59.1273 305.138 57.6702L304 56.0258C301.667 57.6407 299.699 59.701 298.096 62.1952L299.778 63.2768ZM305.145 57.6658C307.355 56.1101 309.769 54.9642 312.392 54.2267L311.85 52.3013C309.011 53.0998 306.391 54.3432 303.994 56.0302L305.145 57.6658ZM312.392 54.2267C315.032 53.484 317.757 53.112 320.569 53.112V51.112C317.578 51.112 314.671 51.508 311.85 52.3013L312.392 54.2267ZM400.974 57.744L401.649 57.0062L401.649 57.0062L400.974 57.744ZM406.99 122V123H407.99V122H406.99ZM398.798 122L397.822 122.218L397.997 123H398.798V122ZM396.622 112.272L397.598 112.054L397.423 111.272H396.622V112.272ZM396.11 112.272V111.272H395.627L395.326 111.651L396.11 112.272ZM389.966 118.544L390.587 119.328L390.591 119.325L389.966 118.544ZM382.798 122.128L382.527 121.165L382.519 121.168L382.798 122.128ZM361.934 121.104L361.526 122.017L361.534 122.021L361.934 121.104ZM354.254 114.448L353.401 114.969L353.407 114.98L354.254 114.448ZM359.502 87.184L360.066 88.01L360.075 88.0038L359.502 87.184ZM384.334 81.04L384.365 82.0395L384.367 82.0395L384.334 81.04ZM395.982 80.656L396.015 81.6555L396.982 81.6236V80.656H395.982ZM392.27 64.656L391.602 65.4006L391.602 65.4006L392.27 64.656ZM371.534 62.992L371.835 63.9456L371.846 63.942L371.858 63.9382L371.534 62.992ZM362.446 66.576L361.52 66.9546L361.924 67.9405L362.882 67.4758L362.446 66.576ZM358.99 58.128L358.513 57.2491L357.725 57.6769L358.064 58.5066L358.99 58.128ZM369.614 54.032L369.875 54.9972L369.885 54.9947L369.894 54.992L369.614 54.032ZM385.742 88.848L385.704 87.8487L385.702 87.8488L385.742 88.848ZM367.95 92.944L367.367 92.1316L367.357 92.1389L367.95 92.944ZM366.542 111.504L365.928 112.293L365.935 112.299L365.942 112.304L366.542 111.504ZM390.094 109.456L390.729 110.228L390.739 110.22L390.094 109.456ZM395.854 88.464H396.854V87.4253L395.816 87.4647L395.854 88.464ZM382.414 53.24C390.657 53.24 396.55 55.052 400.299 58.4818L401.649 57.0062C397.377 53.0973 390.897 51.24 382.414 51.24V53.24ZM400.299 58.4818C404.021 61.8867 405.99 67.4047 405.99 75.28H407.99C407.99 67.1127 405.949 60.9399 401.649 57.0062L400.299 58.4818ZM405.99 75.28V122H407.99V75.28H405.99ZM406.99 121H398.798V123H406.99V121ZM399.774 121.782L397.598 112.054L395.646 112.49L397.822 122.218L399.774 121.782ZM396.622 111.272H396.11V113.272H396.622V111.272ZM395.326 111.651C393.404 114.075 391.408 116.11 389.341 117.763L390.591 119.325C392.791 117.565 394.891 115.418 396.893 112.893L395.326 111.651ZM389.345 117.76C387.41 119.292 385.142 120.43 382.527 121.165L383.069 123.091C385.916 122.29 388.426 121.038 390.587 119.328L389.345 117.76ZM382.519 121.168C379.992 121.901 376.85 122.28 373.07 122.28V124.28C376.97 124.28 380.313 123.891 383.077 123.088L382.519 121.168ZM373.07 122.28C369.094 122.28 365.52 121.576 362.334 120.187L361.534 122.021C365.004 123.533 368.854 124.28 373.07 124.28V122.28ZM362.342 120.191C359.279 118.821 356.872 116.734 355.101 113.916L353.407 114.98C355.391 118.136 358.104 120.486 361.526 122.017L362.342 120.191ZM355.107 113.927C353.349 111.05 352.438 107.403 352.438 102.928H350.438C350.438 107.669 351.404 111.702 353.401 114.969L355.107 113.927ZM352.438 102.928C352.438 96.4126 354.978 91.4824 360.066 88.0099L358.938 86.358C353.274 90.2243 350.438 95.79 350.438 102.928H352.438ZM360.075 88.0038C365.214 84.4142 373.258 82.3786 384.365 82.0395L384.303 80.0405C373.052 80.384 364.542 82.4445 358.929 86.3642L360.075 88.0038ZM384.367 82.0395L396.015 81.6555L395.949 79.6565L384.301 80.0405L384.367 82.0395ZM396.982 80.656V76.56H394.982V80.656H396.982ZM396.982 76.56C396.982 70.7526 395.735 66.4191 392.938 63.9114L391.602 65.4006C393.755 67.3302 394.982 70.9328 394.982 76.56H396.982ZM392.938 63.9114C390.222 61.4769 386.453 60.328 381.774 60.328V62.328C386.14 62.328 389.369 63.3978 391.602 65.4006L392.938 63.9114ZM381.774 60.328C378.085 60.328 374.562 60.8992 371.21 62.0458L371.858 63.9382C374.991 62.8661 378.295 62.328 381.774 62.328V60.328ZM371.233 62.0384C367.948 63.0758 364.873 64.2879 362.01 65.6762L362.882 67.4758C365.651 66.1334 368.635 64.9562 371.835 63.9456L371.233 62.0384ZM363.372 66.1974L359.916 57.7494L358.064 58.5066L361.52 66.9546L363.372 66.1974ZM359.467 59.0069C362.371 57.4304 365.837 56.091 369.875 54.9972L369.353 53.0668C365.199 54.1916 361.582 55.5829 358.513 57.2491L359.467 59.0069ZM369.894 54.992C373.895 53.8249 378.068 53.24 382.414 53.24V51.24C377.886 51.24 373.525 51.8498 369.334 53.072L369.894 54.992ZM385.702 87.8488C377.145 88.1911 370.951 89.5581 367.367 92.1317L368.533 93.7563C371.605 91.5513 377.273 90.1876 385.782 89.8472L385.702 87.8488ZM367.357 92.1389C363.835 94.7337 362.086 98.416 362.086 103.056H364.086C364.086 98.992 365.579 95.9329 368.543 93.7491L367.357 92.1389ZM362.086 103.056C362.086 107.099 363.308 110.255 365.928 112.293L367.156 110.715C365.168 109.169 364.086 106.693 364.086 103.056H362.086ZM365.942 112.304C368.541 114.253 371.795 115.192 375.63 115.192V113.192C372.127 113.192 369.322 112.339 367.142 110.704L365.942 112.304ZM375.63 115.192C381.624 115.192 386.681 113.557 390.729 110.228L389.459 108.684C385.827 111.67 381.242 113.192 375.63 113.192V115.192ZM390.739 110.22C394.872 106.73 396.854 101.457 396.854 94.608H394.854C394.854 101.071 392.996 105.696 389.449 108.692L390.739 110.22ZM396.854 94.608V88.464H394.854V94.608H396.854ZM395.816 87.4647L385.704 87.8487L385.78 89.8473L395.892 89.4633L395.816 87.4647ZM421.78 114.448L421.021 115.099L421.025 115.104L421.78 114.448ZM421.78 61.2L421.021 60.5483L421.021 60.5492L421.78 61.2ZM451.732 53.52L451.398 54.4624L451.411 54.4673L451.425 54.4717L451.732 53.52ZM458.644 57.104L459.26 56.3165L458.644 57.104ZM463.636 62.224L462.827 62.8122L463.127 63.224H463.636V62.224ZM464.404 62.224V63.224H465.484L465.401 62.1473L464.404 62.224ZM463.892 57.36L462.895 57.4367L462.897 57.458L462.899 57.4791L463.892 57.36ZM463.636 24.72V23.72H462.636V24.72H463.636ZM474.9 24.72H475.9V23.72H474.9V24.72ZM474.9 122V123H475.9V122H474.9ZM465.812 122L464.828 122.178L464.976 123H465.812V122ZM464.148 112.784L465.132 112.606L464.984 111.784H464.148V112.784ZM463.636 112.784V111.784H463.113L462.815 112.213L463.636 112.784ZM458.644 118.16L459.26 118.948L459.271 118.939L459.281 118.931L458.644 118.16ZM451.604 121.872L451.279 120.926L451.27 120.93L451.604 121.872ZM459.284 108.048L458.482 107.451L458.48 107.454L459.284 108.048ZM459.54 68.368L458.687 68.8895L458.691 68.8966L459.54 68.368ZM430.228 68.752L429.383 68.218L429.38 68.222L430.228 68.752ZM430.228 107.152L429.393 107.703L429.401 107.714L430.228 107.152ZM442.26 122.28C433.986 122.28 427.446 119.439 422.535 113.792L421.025 115.104C426.354 121.233 433.468 124.28 442.26 124.28V122.28ZM422.539 113.797C417.636 108.076 415.1 99.476 415.1 87.824H413.1C413.1 99.724 415.684 108.873 421.021 115.099L422.539 113.797ZM415.1 87.824C415.1 76.172 417.636 67.5715 422.539 61.8508L421.021 60.5492C415.684 66.7751 413.1 75.924 413.1 87.824H415.1ZM422.538 61.8517C427.54 56.0307 434.124 53.112 442.388 53.112V51.112C433.586 51.112 426.431 54.2519 421.021 60.5483L422.538 61.8517ZM442.388 53.112C445.888 53.112 448.885 53.5708 451.398 54.4624L452.066 52.5776C449.289 51.5919 446.056 51.112 442.388 51.112V53.112ZM451.425 54.4717C453.971 55.2931 456.168 56.4359 458.028 57.8915L459.26 56.3165C457.195 54.7001 454.783 53.4536 452.039 52.5683L451.425 54.4717ZM458.028 57.8915C459.923 59.3745 461.52 61.0152 462.827 62.8122L464.445 61.6358C463.021 59.6781 461.291 57.9055 459.26 56.3165L458.028 57.8915ZM463.636 63.224H464.404V61.224H463.636V63.224ZM465.401 62.1473C465.314 61.0162 465.141 59.3779 464.885 57.2409L462.899 57.4791C463.155 59.6088 463.323 61.2131 463.407 62.3007L465.401 62.1473ZM464.889 57.2833C464.719 55.0745 464.636 53.3544 464.636 52.112H462.636C462.636 53.4295 462.724 55.2081 462.895 57.4367L464.889 57.2833ZM464.636 52.112V24.72H462.636V52.112H464.636ZM463.636 25.72H474.9V23.72H463.636V25.72ZM473.9 24.72V122H475.9V24.72H473.9ZM474.9 121H465.812V123H474.9V121ZM466.796 121.822L465.132 112.606L463.164 112.962L464.828 122.178L466.796 121.822ZM464.148 111.784H463.636V113.784H464.148V111.784ZM462.815 112.213C461.505 114.096 459.904 115.822 458.007 117.389L459.281 118.931C461.309 117.255 463.036 115.397 464.457 113.355L462.815 112.213ZM458.028 117.372C456.165 118.83 453.921 120.018 451.279 120.926L451.929 122.818C454.749 121.848 457.197 120.562 459.26 118.948L458.028 117.372ZM451.27 120.93C448.757 121.821 445.76 122.28 442.26 122.28V124.28C445.928 124.28 449.161 123.8 451.938 122.814L451.27 120.93ZM444.052 114.936C451.462 114.936 456.92 112.929 460.088 108.642L458.48 107.454C455.846 111.017 451.149 112.936 444.052 112.936V114.936ZM460.086 108.645C463.258 104.386 464.764 98.1164 464.764 90H462.764C462.764 97.9263 461.283 103.689 458.482 107.451L460.086 108.645ZM464.764 90V87.952H462.764V90H464.764ZM464.764 87.952C464.764 79.3339 463.346 72.5894 460.389 67.8394L458.691 68.8966C461.366 73.1919 462.764 79.5035 462.764 87.952H464.764ZM460.393 67.8465C457.327 62.8287 451.711 60.456 443.924 60.456V62.456C451.327 62.456 456.121 64.6913 458.687 68.8894L460.393 67.8465ZM443.924 60.456C437.544 60.456 432.649 63.0458 429.383 68.218L431.073 69.286C433.951 64.7302 438.186 62.456 443.924 62.456V60.456ZM429.38 68.222C426.26 73.2147 424.748 79.8638 424.748 88.08H426.748C426.748 80.0829 428.223 73.8466 431.076 69.282L429.38 68.222ZM424.748 88.08C424.748 96.3743 426.257 102.953 429.394 107.703L431.062 106.601C428.226 102.305 426.748 96.1697 426.748 88.08H424.748ZM429.401 107.714C432.684 112.548 437.625 114.936 444.052 114.936V112.936C438.191 112.936 433.916 110.801 431.055 106.59L429.401 107.714ZM528.05 55.952L527.528 56.8049L527.536 56.8095L528.05 55.952ZM537.778 66.832L536.874 67.2594L536.879 67.2693L536.884 67.2792L537.778 66.832ZM541.234 89.872V90.872H542.234V89.872H541.234ZM494.258 89.872V88.872H493.236L493.258 89.894L494.258 89.872ZM500.146 107.664L499.409 108.34L499.416 108.348L499.424 108.356L500.146 107.664ZM527.666 112.528L527.891 113.502L527.9 113.5L527.909 113.498L527.666 112.528ZM538.162 108.944H539.162V107.427L537.768 108.025L538.162 108.944ZM538.162 118.8L538.564 119.716L539.162 119.453V118.8H538.162ZM527.794 122.128L527.598 121.147L527.586 121.15L527.574 121.152L527.794 122.128ZM498.354 119.312L497.883 120.194L497.889 120.197L498.354 119.312ZM486.706 107.536L485.817 107.995L485.822 108.003L485.826 108.012L486.706 107.536ZM486.322 68.88L485.419 68.45L485.414 68.4619L486.322 68.88ZM496.946 56.464L496.413 55.6177L496.406 55.6223L496.946 56.464ZM500.018 66.576L499.276 65.906L499.275 65.907L500.018 66.576ZM494.514 80.912L493.519 80.8152L493.412 81.912H494.514V80.912ZM529.458 80.912V81.912H530.458V80.912H529.458ZM527.666 70.672L526.741 71.0527L526.741 71.0527L527.666 70.672ZM522.162 63.888L521.581 64.7017L521.597 64.7134L521.614 64.7245L522.162 63.888ZM512.946 53.112C518.687 53.112 523.533 54.3588 527.528 56.8048L528.572 55.0991C524.205 52.4252 518.981 51.112 512.946 51.112V53.112ZM527.536 56.8095C531.625 59.2632 534.736 62.7366 536.874 67.2594L538.682 66.4046C536.383 61.5407 533.008 57.7608 528.565 55.0945L527.536 56.8095ZM536.884 67.2792C539.105 71.7223 540.234 76.9819 540.234 83.088H542.234C542.234 76.7355 541.059 71.1577 538.672 66.3848L536.884 67.2792ZM540.234 83.088V89.872H542.234V83.088H540.234ZM541.234 88.872H494.258V90.872H541.234V88.872ZM493.258 89.894C493.432 97.8057 495.435 104.005 499.409 108.34L500.883 106.988C497.347 103.131 495.425 97.4689 495.258 89.85L493.258 89.894ZM499.424 108.356C503.494 112.607 509.114 114.68 516.146 114.68V112.68C509.525 112.68 504.478 110.742 500.868 106.972L499.424 108.356ZM516.146 114.68C520.554 114.68 524.472 114.291 527.891 113.502L527.441 111.554C524.204 112.301 520.442 112.68 516.146 112.68V114.68ZM527.909 113.498C531.379 112.631 534.928 111.418 538.556 109.863L537.768 108.025C534.228 109.542 530.78 110.719 527.423 111.558L527.909 113.498ZM537.162 108.944V118.8H539.162V108.944H537.162ZM537.76 117.884C534.321 119.394 530.934 120.48 527.598 121.147L527.99 123.109C531.481 122.41 535.006 121.278 538.564 119.716L537.76 117.884ZM527.574 121.152C524.253 121.9 520.277 122.28 515.634 122.28V124.28C520.378 124.28 524.508 123.892 528.014 123.104L527.574 121.152ZM515.634 122.28C509.288 122.28 503.691 120.987 498.819 118.427L497.889 120.197C503.086 122.928 509.01 124.28 515.634 124.28V122.28ZM498.825 118.43C494.059 115.882 490.314 112.103 487.586 107.06L485.826 108.012C488.73 113.38 492.751 117.451 497.883 120.194L498.825 118.43ZM487.595 107.077C484.955 101.962 483.61 95.6859 483.61 88.208H481.61C481.61 95.9195 482.996 102.528 485.817 107.995L487.595 107.077ZM483.61 88.208C483.61 80.8055 484.83 74.5127 487.23 69.2981L485.414 68.4619C482.865 73.9993 481.61 80.5918 481.61 88.208H483.61ZM487.225 69.3099C489.714 64.0835 493.137 60.0956 497.486 57.3057L496.406 55.6223C491.71 58.635 488.05 62.9244 485.419 68.4501L487.225 69.3099ZM497.479 57.3102C501.91 54.5204 507.054 53.112 512.946 53.112V51.112C506.721 51.112 501.198 52.6049 496.413 55.6178L497.479 57.3102ZM512.818 60.328C507.203 60.328 502.65 62.1666 499.276 65.906L500.76 67.246C503.701 63.988 507.681 62.328 512.818 62.328V60.328ZM499.275 65.907C496.018 69.5259 494.13 74.5309 493.519 80.8152L495.509 81.0088C496.093 75.0051 497.874 70.4527 500.761 67.245L499.275 65.907ZM494.514 81.912H529.458V79.912H494.514V81.912ZM530.458 80.912C530.458 76.8877 529.846 73.3395 528.591 70.2912L526.741 71.0527C527.875 73.8071 528.458 77.0856 528.458 80.912H530.458ZM528.591 70.2912C527.324 67.2154 525.364 64.7902 522.71 63.0515L521.614 64.7245C523.91 66.2285 525.619 68.3259 526.741 71.0527L528.591 70.2912ZM522.743 63.0743C520.139 61.214 516.803 60.328 512.818 60.328V62.328C516.513 62.328 519.406 63.1486 521.581 64.7017L522.743 63.0743Z" fill="#B7F19C" fill-opacity="0.28"/>
</g>
</g>
<defs>
<filter id="filter0_d_2_23" x="19.808" y="10.75" width="525.426" height="138.5" filterUnits="userSpaceOnUse" color-interpolation-filters="sRGB">
<feFlood flood-opacity="0" result="BackgroundImageFix"/>
<feColorMatrix in="SourceAlpha" type="matrix" values="0 0 0 0 0 0 0 0 0 0 0 0 0 0 0 0 0 0 127 0" result="hardAlpha"/>
<feOffset dy="4"/>
<feGaussianBlur stdDeviation="2"/>
<feComposite in2="hardAlpha" operator="out"/>
<feColorMatrix type="matrix" values="0 0 0 0 0 0 0 0 0 0 0 0 0 0 0 0 0 0 0.25 0"/>
<feBlend mode="normal" in2="BackgroundImageFix" result="effect1_dropShadow_2_23"/>
<feBlend mode="normal" in="SourceGraphic" in2="effect1_dropShadow_2_23" result="shape"/>
</filter>
<filter id="filter1_d_2_23" x="19.808" y="24.72" width="525.426" height="106.56" filterUnits="userSpaceOnUse" color-interpolation-filters="sRGB">
<feFlood flood-opacity="0" result="BackgroundImageFix"/>
<feColorMatrix in="SourceAlpha" type="matrix" values="0 0 0 0 0 0 0 0 0 0 0 0 0 0 0 0 0 0 127 0" result="hardAlpha"/>
<feOffset dy="4"/>
<feGaussianBlur stdDeviation="2"/>
<feComposite in2="hardAlpha" operator="out"/>
<feColorMatrix type="matrix" values="0 0 0 0 0 0 0 0 0 0 0 0 0 0 0 0 0 0 0.25 0"/>
<feBlend mode="normal" in2="BackgroundImageFix" result="effect1_dropShadow_2_23"/>
<feBlend mode="normal" in="SourceGraphic" in2="effect1_dropShadow_2_23" result="shape"/>
</filter>
<radialGradient id="paint0_diamond_2_23" cx="0" cy="0" r="1" gradientUnits="userSpaceOnUse" gradientTransform="translate(282.521 76) rotate(90) scale(65.25 258.713)">
<stop offset="0.442708" stop-color="#61AA3F"/>
<stop offset="0.932092" stop-color="#326819"/>
<stop offset="0.989483" stop-color="#24540D"/>
<stop offset="0.989583" stop-color="#24540D" stop-opacity="0"/>
</radialGradient>
<radialGradient id="paint1_diamond_2_23" cx="0" cy="0" r="1" gradientUnits="userSpaceOnUse" gradientTransform="translate(282.521 76) rotate(90) scale(65.25 258.713)">
<stop offset="0.442708" stop-color="#61AA3F"/>
<stop offset="0.932092" stop-color="#326819"/>
<stop offset="0.989483" stop-color="#24540D"/>
<stop offset="0.989583" stop-color="#24540D" stop-opacity="0"/>
</radialGradient>
<radialGradient id="paint2_diamond_2_23" cx="0" cy="0" r="1" gradientUnits="userSpaceOnUse" gradientTransform="translate(282.521 76) rotate(90) scale(65.25 258.713)">
<stop offset="0.442708" stop-color="#61AA3F"/>
<stop offset="0.932092" stop-color="#326819"/>
<stop offset="0.989483" stop-color="#24540D"/>
<stop offset="0.989583" stop-color="#24540D" stop-opacity="0"/>
</radialGradient>
<linearGradient id="paint3_linear_2_23" x1="282" y1="-63" x2="282" y2="283" gradientUnits="userSpaceOnUse">
<stop offset="0.276042" stop-color="#24540D"/>
<stop offset="0.432292" stop-color="#B7F19C"/>
<stop offset="0.546875" stop-color="#214012"/>
</linearGradient>
<linearGradient id="paint4_linear_2_23" x1="282" y1="-63" x2="282" y2="283" gradientUnits="userSpaceOnUse">
<stop offset="0.276042" stop-color="#24540D"/>
<stop offset="0.432292" stop-color="#B7F19C"/>
<stop offset="0.546875" stop-color="#214012"/>
</linearGradient>
<linearGradient id="paint5_linear_2_23" x1="282" y1="-63" x2="282" y2="283" gradientUnits="userSpaceOnUse">
<stop offset="0.276042" stop-color="#24540D"/>
<stop offset="0.432292" stop-color="#B7F19C"/>
<stop offset="0.546875" stop-color="#214012"/>
</linearGradient>
<linearGradient id="paint6_linear_2_23" x1="282" y1="-63" x2="282" y2="283" gradientUnits="userSpaceOnUse">
<stop offset="0.276042" stop-color="#24540D"/>
<stop offset="0.432292" stop-color="#B7F19C"/>
<stop offset="0.546875" stop-color="#214012"/>
</linearGradient>
<linearGradient id="paint7_linear_2_23" x1="282" y1="-63" x2="282" y2="283" gradientUnits="userSpaceOnUse">
<stop offset="0.276042" stop-color="#24540D"/>
<stop offset="0.432292" stop-color="#B7F19C"/>
<stop offset="0.546875" stop-color="#214012"/>
</linearGradient>
<linearGradient id="paint8_linear_2_23" x1="282" y1="-63" x2="282" y2="283" gradientUnits="userSpaceOnUse">
<stop offset="0.276042" stop-color="#24540D"/>
<stop offset="0.432292" stop-color="#B7F19C"/>
<stop offset="0.546875" stop-color="#214012"/>
</linearGradient>
<linearGradient id="paint9_linear_2_23" x1="282" y1="-63" x2="282" y2="283" gradientUnits="userSpaceOnUse">
<stop offset="0.276042" stop-color="#24540D"/>
<stop offset="0.432292" stop-color="#B7F19C"/>
<stop offset="0.546875" stop-color="#214012"/>
</linearGradient>
<linearGradient id="paint10_linear_2_23" x1="282" y1="-63" x2="282" y2="283" gradientUnits="userSpaceOnUse">
<stop offset="0.276042" stop-color="#24540D"/>
<stop offset="0.432292" stop-color="#B7F19C"/>
<stop offset="0.546875" stop-color="#214012"/>
</linearGradient>
<linearGradient id="paint11_linear_2_23" x1="282" y1="-63" x2="282" y2="283" gradientUnits="userSpaceOnUse">
<stop offset="0.276042" stop-color="#24540D"/>
<stop offset="0.432292" stop-color="#B7F19C"/>
<stop offset="0.546875" stop-color="#214012"/>
</linearGradient>
<clipPath id="clip0_2_23">
<rect width="548" height="167" fill="white"/>
</clipPath>
</defs>
</svg>
